HIERARCHY
ROOT Hips
{
  OFFSET 49.9359 86.3995 7.70534
  CHANNELS 6 Xposition Yposition Zposition Zrotation Xrotation Yrotation
  JOINT spine
  {
    OFFSET 0 6.84637 0.3937
    CHANNELS 3 Zrotation Xrotation Yrotation
    JOINT spine1
    {
      OFFSET 0 9.49621 0
      CHANNELS 3 Zrotation Xrotation Yrotation
      JOINT spine2
      {
        OFFSET 0 9.09909 0
        CHANNELS 3 Zrotation Xrotation Yrotation
        JOINT Neck
        {
          OFFSET 0 23.3612 1.11378
          CHANNELS 3 Zrotation Xrotation Yrotation
          JOINT Head
          {
            OFFSET 0 7.05802 0
            CHANNELS 3 Zrotation Xrotation Yrotation
            End Site
            {
              OFFSET 0 17.0844 -5.63419
            }
          }
        }
        JOINT RightShoulder
        {
          OFFSET -3.83136 9.82631 -0.533491
          CHANNELS 3 Zrotation Xrotation Yrotation
          JOINT RightArm
          {
            OFFSET 0 12.8881 0
            CHANNELS 3 Zrotation Xrotation Yrotation
            JOINT RightArmRoll
            {
              OFFSET 0 6.50617 0
              CHANNELS 3 Zrotation Xrotation Yrotation
              JOINT RightForeArm
              {
                OFFSET 0 18.9501 0
                CHANNELS 3 Zrotation Xrotation Yrotation
                JOINT RightForeArmRoll
                {
                  OFFSET 0 7.30092 0
                  CHANNELS 3 Zrotation Xrotation Yrotation
                  JOINT RightHand
                  {
                    OFFSET 0 14.6514 0
                    CHANNELS 3 Zrotation Xrotation Yrotation
                    End Site
                    {
                      OFFSET 0 0 0
                    }
                  }
                }
              }
            }
          }
        }
        JOINT LeftShoulder
        {
          OFFSET 3.83136 9.82631 -0.533491
          CHANNELS 3 Zrotation Xrotation Yrotation
          JOINT LeftArm
          {
            OFFSET 0 12.8881 0
            CHANNELS 3 Zrotation Xrotation Yrotation
            JOINT LeftArmRoll
            {
              OFFSET 0 6.50617 0
              CHANNELS 3 Zrotation Xrotation Yrotation
              JOINT LeftForeArm
              {
                OFFSET 0 18.9501 0
                CHANNELS 3 Zrotation Xrotation Yrotation
                JOINT LeftForeArmRoll
                {
                  OFFSET 0 7.30092 0
                  CHANNELS 3 Zrotation Xrotation Yrotation
                  JOINT LeftHand
                  {
                    OFFSET 0 14.6514 0
                    CHANNELS 3 Zrotation Xrotation Yrotation
                    End Site
                    {
                      OFFSET 0 0 0
                    }
                  }
                }
              }
            }
          }
        }
      }
    }
  }
  JOINT RightUpLeg
  {
    OFFSET -6.06837 -1.11278 -0.933477
    CHANNELS 3 Zrotation Xrotation Yrotation
    JOINT RightUpLegRoll
    {
      OFFSET 0 17.1796 0
      CHANNELS 3 Zrotation Xrotation Yrotation
      JOINT RightLeg
      {
        OFFSET 0 -21.2743 0
        CHANNELS 3 Zrotation Xrotation Yrotation
        JOINT RightLegRoll
        {
          OFFSET 0 21.3439 0
          CHANNELS 3 Zrotation Xrotation Yrotation
          JOINT RightFoot
          {
            OFFSET 0 17.7652 0
            CHANNELS 3 Zrotation Xrotation Yrotation
            JOINT RightToeBase
            {
              OFFSET 0 14.8508 0
              CHANNELS 3 Zrotation Xrotation Yrotation
              End Site
              {
                OFFSET 0.0062947 7.19213 -0.829005
              }
            }
          }
        }
      }
    }
  }
  JOINT LeftUpLeg
  {
    OFFSET 6.06837 -1.11278 -0.933477
    CHANNELS 3 Zrotation Xrotation Yrotation
    JOINT LeftUpLegRoll
    {
      OFFSET 0 17.1797 0
      CHANNELS 3 Zrotation Xrotation Yrotation
      JOINT LeftLeg
      {
        OFFSET 0 21.2742 0
        CHANNELS 3 Zrotation Xrotation Yrotation
        JOINT LeftLegRoll
        {
          OFFSET 0 21.5412 0
          CHANNELS 3 Zrotation Xrotation Yrotation
          JOINT LeftFoot
          {
            OFFSET 0 17.5679 0
            CHANNELS 3 Zrotation Xrotation Yrotation
            JOINT LeftToeBase
            {
              OFFSET 0 14.8508 0
              CHANNELS 3 Zrotation Xrotation Yrotation
              End Site
              {
                OFFSET -0.0282102 7.19214 -0.829004
              }
            }
          }
        }
      }
    }
  }
}
MOTION
Frames: 13
Frame Time: 0.00208333
50.142 86.466 6.54196 0.123667 -3.66759 -1.32579 1.44431 -1.89185 1.39822 2.92394 0.25452 2.6491 2.89372 1.89764 2.60101 -19.353 8.84344 -1.69383 15.2827 7.11088 -6.49599 49.7003 -7.79392 -4.52823 111.708 19.9528 -14.4232 6.29925e-006 -5.63731e-007 -5.99739e-007 15.8812 37.7382 -3.52282 -7.99901e-006 3.07644e-006 -3.00587 8.02885 -4.95089 0.697378 -77.2269 -8.20712 5.5056 -98.7817 28.1017 2.84017 2.08215e-005 -1.99838e-006 4.20317e-006 -21.7202 43.8745 8.99762 7.77069e-006 1.26415e-005 3.00605 -8.02892 -4.95111 -0.697475 179.759 13.2236 -2.04796 -180 7.01484e-015 178.676 176.163 25.0035 -179.653 3.26638e-006 7.70834e-007 0.71906 -24.2398 71.3447 23.0564 8.13649 25.2327 -3.48774 -176.332 11.2519 -1.6907 -1.07169e-005 -4.64205e-006 -0.8746 -2.1634 -25.7375 0.344851 5.81824e-008 -4.00362e-006 -0.445932 22.2371 73.7863 -25.6061 -8.13649 25.2327 3.48774 
50.1453 86.4684 6.54325 0.124774 -3.66853 -1.32574 1.4443 -1.89191 1.3979 2.92348 0.255125 2.64891 2.89326 1.89825 2.60082 -19.3459 8.8502 -1.69281 15.2816 7.10873 -6.49383 49.7043 -7.79451 -4.52881 111.707 19.9615 -14.456 6.29925e-006 -5.63731e-007 -5.99739e-007 15.8691 37.7697 -3.51951 -7.99901e-006 3.07644e-006 -3.00587 8.02885 -4.95089 0.697378 -77.2199 -8.20873 5.50613 -98.7997 28.1078 2.85432 2.08215e-005 -1.99838e-006 4.20317e-006 -21.7244 43.874 9.00009 7.77069e-006 1.26415e-005 3.00605 -8.02892 -4.95111 -0.697475 179.76 13.2225 -2.05175 -180 7.01484e-015 178.676 176.167 25.0026 -179.654 3.26638e-006 7.70834e-007 0.719061 -24.2355 71.3441 23.0548 8.13649 25.2327 -3.48774 -176.333 11.2482 -1.68941 -1.07169e-005 -4.64205e-006 -0.8746 -2.16195 -25.7345 0.345578 5.81824e-008 -4.00362e-006 -0.445932 22.2353 73.7859 -25.6056 -8.13649 25.2327 3.48774 
50.1312 86.4712 6.5443 0.125848 -3.66939 -1.32578 1.44427 -1.892 1.39756 2.92299 0.255702 2.6487 2.89276 1.89882 2.60063 -19.339 8.85687 -1.69177 15.2806 7.10643 -6.49165 49.7083 -7.79508 -4.52937 111.706 19.97 -14.4887 6.29925e-006 -5.63731e-007 -5.99739e-007 15.8571 37.8011 -3.5162 -7.99901e-006 3.07644e-006 -3.00587 8.02885 -4.95089 0.697378 -77.2127 -8.21042 5.5067 -98.8181 28.1139 2.86822 2.08215e-005 -1.99838e-006 4.20317e-006 -21.7285 43.8734 9.00259 7.77069e-006 1.26415e-005 3.00605 -8.02892 -4.95111 -0.697475 179.761 13.2214 -2.05561 -180 7.01484e-015 178.676 176.171 25.0016 -179.656 3.26638e-006 7.70834e-007 0.719061 -24.231 71.3435 23.0529 8.13649 25.2327 -3.48774 -176.334 11.2444 -1.68803 -1.07169e-005 -4.64205e-006 -0.8746 -2.16032 -25.7315 0.346387 5.81824e-008 -4.00362e-006 -0.445932 22.2334 73.7855 -25.6052 -8.13649 25.2327 3.48774 
50.1372 86.4731 6.54655 0.126898 -3.67021 -1.32588 1.44424 -1.89212 1.39721 2.92247 0.25626 2.64848 2.89224 1.89938 2.60042 -19.332 8.86348 -1.69072 15.2798 7.10402 -6.48944 49.7124 -7.79563 -4.52993 111.705 19.9784 -14.5213 6.29925e-006 -5.63731e-007 -5.99739e-007 15.845 37.8324 -3.51288 -7.99901e-006 3.07644e-006 -3.00587 8.02885 -4.95089 0.697378 -77.2053 -8.21216 5.50728 -98.8367 28.1198 2.88195 2.08215e-005 -1.99838e-006 4.20317e-006 -21.7326 43.8728 9.00512 7.77069e-006 1.26415e-005 3.00605 -8.02892 -4.95111 -0.697475 179.762 13.2204 -2.05951 -180 7.01484e-015 178.676 176.176 25.0006 -179.658 3.26638e-006 7.70834e-007 0.719061 -24.2264 71.3428 23.051 8.13649 25.2327 -3.48774 -176.335 11.2406 -1.68659 -1.07169e-005 -4.64205e-006 -0.8746 -2.15856 -25.7285 0.347252 5.81824e-008 -4.00362e-006 -0.445932 22.2315 73.7852 -25.6048 -8.13649 25.2327 3.48774 
50.1456 86.4718 6.54445 0.127935 -3.67099 -1.32601 1.44421 -1.89225 1.39685 2.92195 0.256807 2.64826 2.89172 1.89993 2.60021 -19.3251 8.87006 -1.68967 15.279 7.10155 -6.48722 49.7165 -7.79618 -4.53047 111.703 19.9866 -14.5539 6.29925e-006 -5.63731e-007 -5.99739e-007 15.833 37.8638 -3.50955 -7.99901e-006 3.07644e-006 -3.00587 8.02885 -4.95089 0.697378 -77.1978 -8.21394 5.50787 -98.8554 28.1256 2.89557 2.08215e-005 -1.99838e-006 4.20317e-006 -21.7367 43.8723 9.00767 7.77069e-006 1.26415e-005 3.00605 -8.02892 -4.95111 -0.697475 179.763 13.2194 -2.06345 -180 7.01484e-015 178.676 176.18 24.9995 -179.66 3.26638e-006 7.70834e-007 0.71906 -24.2217 71.3421 23.049 8.13649 25.2327 -3.48774 -176.336 11.2367 -1.68512 -1.07169e-005 -4.64205e-006 -0.8746 -2.15673 -25.7255 0.34815 5.81824e-008 -4.00362e-006 -0.445932 22.2295 73.7849 -25.6046 -8.13649 25.2327 3.48774 
50.1423 86.4708 6.54361 0.128968 -3.67177 -1.32615 1.44418 -1.89239 1.3965 2.92142 0.257351 2.64803 2.89118 1.90047 2.6 -19.3183 8.87663 -1.68862 15.2783 7.09907 -6.48499 49.7206 -7.79673 -4.53102 111.702 19.9948 -14.5864 6.29925e-006 -5.63731e-007 -5.99739e-007 15.821 37.8951 -3.50622 -7.99901e-006 3.07644e-006 -3.00587 8.02885 -4.95089 0.697378 -77.1903 -8.21572 5.50847 -98.8742 28.1315 2.90917 2.08215e-005 -1.99838e-006 4.20317e-006 -21.7407 43.8717 9.01022 7.77069e-006 1.26415e-005 3.00605 -8.02892 -4.95111 -0.697475 179.765 13.2184 -2.06739 -180 7.01484e-015 178.676 176.184 24.9984 -179.662 3.26638e-006 7.70834e-007 0.71906 -24.217 71.3414 23.047 8.13649 25.2327 -3.48774 -176.338 11.2329 -1.68364 -1.07169e-005 -4.64205e-006 -0.8746 -2.15488 -25.7225 0.349055 5.81824e-008 -4.00362e-006 -0.445932 22.2275 73.7847 -25.6043 -8.13649 25.2327 3.48774 
50.1417 86.47 6.53528 0.130008 -3.67257 -1.32628 1.44414 -1.89253 1.39614 2.92089 0.2579 2.64781 2.89066 1.90102 2.59979 -19.3114 8.88322 -1.68757 15.2775 7.09661 -6.48277 49.7247 -7.79728 -4.53157 111.7 20.0031 -14.619 6.29925e-006 -5.63731e-007 -5.99739e-007 15.8089 37.9265 -3.5029 -7.99901e-006 3.07644e-006 -3.00587 8.02885 -4.95089 0.697378 -77.1828 -8.21748 5.50906 -98.8929 28.1373 2.92282 2.08215e-005 -1.99838e-006 4.20317e-006 -21.7448 43.8711 9.01276 7.77069e-006 1.26415e-005 3.00605 -8.02892 -4.95111 -0.697475 179.766 13.2174 -2.07132 -180 7.01484e-015 178.676 176.188 24.9973 -179.664 3.26638e-006 7.70834e-007 0.71906 -24.2124 71.3407 23.045 8.13649 25.2327 -3.48774 -176.339 11.229 -1.68218 -1.07169e-005 -4.64205e-006 -0.8746 -2.15306 -25.7195 0.349945 5.81824e-008 -4.00362e-006 -0.445932 22.2256 73.7844 -25.604 -8.13649 25.2327 3.48774 
50.1433 86.468 6.53549 0.131065 -3.6734 -1.32636 1.44412 -1.89264 1.3958 2.92038 0.258463 2.64759 2.89015 1.90159 2.59959 -19.3044 8.88985 -1.68652 15.2766 7.09423 -6.48057 49.7287 -7.79784 -4.53213 111.699 20.0114 -14.6517 6.29925e-006 -5.63731e-007 -5.99739e-007 15.7969 37.9578 -3.49957 -7.99901e-006 3.07644e-006 -3.00587 8.02885 -4.95089 0.697378 -77.1754 -8.21921 5.50963 -98.9115 28.1433 2.93661 2.08215e-005 -1.99838e-006 4.20317e-006 -21.7489 43.8705 9.01528 7.77069e-006 1.26415e-005 3.00605 -8.02892 -4.95111 -0.697475 179.767 13.2164 -2.07521 -180 7.01484e-015 178.676 176.192 24.9963 -179.665 3.26638e-006 7.70834e-007 0.71906 -24.2078 71.34 23.0431 8.13649 25.2327 -3.48774 -176.34 11.2252 -1.68076 -1.07169e-005 -4.64205e-006 -0.8746 -2.15134 -25.7165 0.350794 5.81824e-008 -4.00362e-006 -0.445932 22.2237 73.7841 -25.6037 -8.13649 25.2327 3.48774 
50.1474 86.4722 6.55671 0.132148 -3.67428 -1.32637 1.44409 -1.89272 1.39546 2.9199 0.259049 2.64739 2.88966 1.90217 2.5994 -19.2974 8.89654 -1.68549 15.2756 7.09198 -6.47839 49.7328 -7.79842 -4.5327 111.698 20.0199 -14.6844 6.29925e-006 -5.63731e-007 -5.99739e-007 15.7848 37.9893 -3.49624 -7.99901e-006 3.07644e-006 -3.00587 8.02885 -4.95089 0.697378 -77.1683 -8.22087 5.51019 -98.9297 28.1493 2.95059 2.08215e-005 -1.99838e-006 4.20317e-006 -21.7531 43.87 9.01777 7.77069e-006 1.26415e-005 3.00605 -8.02892 -4.95111 -0.697475 179.768 13.2153 -2.07905 -180 7.01484e-015 178.676 176.196 24.9953 -179.667 3.26638e-006 7.70834e-007 0.71906 -24.2034 71.3394 23.0413 8.13649 25.2327 -3.48774 -176.341 11.2215 -1.6794 -1.07169e-005 -4.64205e-006 -0.8746 -2.14977 -25.7136 0.351578 5.81824e-008 -4.00362e-006 -0.445932 22.2218 73.7837 -25.6032 -8.13649 25.2327 3.48774 
50.1461 86.4698 6.54624 0.13327 -3.67525 -1.32628 1.44408 -1.89275 1.39515 2.91945 0.259664 2.6472 2.88921 1.90279 2.59922 -19.2903 8.90333 -1.68448 15.2744 7.08989 -6.47625 49.7367 -7.79902 -4.53328 111.697 20.0286 -14.7173 6.29925e-006 -5.63731e-007 -5.99739e-007 15.7727 38.0208 -3.49292 -7.99901e-006 3.07644e-006 -3.00587 8.02885 -4.95089 0.697378 -77.1615 -8.22245 5.51071 -98.9477 28.1555 2.96486 2.08215e-005 -1.99838e-006 4.20317e-006 -21.7572 43.8695 9.02022 7.77069e-006 1.26415e-005 3.00605 -8.02892 -4.95111 -0.697475 179.769 13.2142 -2.08281 -180 7.01484e-015 178.676 176.201 24.9945 -179.669 3.26638e-006 7.70834e-007 0.71906 -24.1991 71.3388 23.0397 8.13649 25.2327 -3.48774 -176.342 11.2177 -1.67814 -1.07169e-005 -4.64205e-006 -0.8746 -2.1484 -25.7106 0.352273 5.81824e-008 -4.00362e-006 -0.445932 22.2201 73.7832 -25.6027 -8.13649 25.2327 3.48774 
50.1534 86.4678 6.54224 0.134438 -3.67631 -1.32608 1.44408 -1.89274 1.39485 2.91904 0.260319 2.64703 2.8888 1.90344 2.59906 -19.2831 8.91023 -1.68348 15.273 7.08802 -6.47415 49.7406 -7.79964 -4.53388 111.696 20.0376 -14.7504 6.29925e-006 -5.63731e-007 -5.99739e-007 15.7605 38.0523 -3.48961 -7.99901e-006 3.07644e-006 -3.00587 8.02885 -4.95089 0.697378 -77.155 -8.22392 5.5112 -98.9651 28.162 2.97948 2.08215e-005 -1.99838e-006 4.20317e-006 -21.7615 43.869 9.02262 7.77069e-006 1.26415e-005 3.00605 -8.02892 -4.95111 -0.697475 179.77 13.213 -2.08648 -180 7.01484e-015 178.676 176.205 24.9937 -179.671 3.26638e-006 7.70834e-007 0.719061 -24.195 71.3383 23.0383 8.13649 25.2327 -3.48774 -176.344 11.2141 -1.677 -1.07169e-005 -4.64205e-006 -0.8746 -2.14729 -25.7077 0.352855 5.81824e-008 -4.00362e-006 -0.445932 22.2185 73.7826 -25.602 -8.13649 25.2327 3.48774 
50.1554 86.4699 6.54963 0.135665 -3.67749 -1.32572 1.44409 -1.89265 1.39459 2.91869 0.26102 2.64689 2.88844 1.90414 2.59893 -19.2757 8.91728 -1.68251 15.2713 7.0864 -6.4721 49.7445 -7.8003 -4.5345 111.696 20.0468 -14.7836 6.29925e-006 -5.63731e-007 -5.99739e-007 15.7484 38.084 -3.4863 -7.99901e-006 3.07644e-006 -3.00587 8.02885 -4.95089 0.697378 -77.1489 -8.22526 5.51164 -98.982 28.1686 2.99454 2.08215e-005 -1.99838e-006 4.20317e-006 -21.7658 43.8686 9.02495 7.77069e-006 1.26415e-005 3.00605 -8.02892 -4.95111 -0.697475 179.771 13.2117 -2.09003 -180 7.01484e-015 178.676 176.209 24.9931 -179.673 3.26638e-006 7.70834e-007 0.719062 -24.1911 71.3379 23.0372 8.13649 25.2327 -3.48774 -176.345 11.2105 -1.676 -1.07169e-005 -4.64205e-006 -0.8746 -2.14649 -25.7048 0.3533 5.81824e-008 -4.00362e-006 -0.445932 22.2171 73.7818 -25.6011 -8.13649 25.2327 3.48774 
50.142 86.4707 6.54471 0.136959 -3.67881 -1.3252 1.44412 -1.89248 1.39435 2.91839 0.261776 2.64677 2.88814 1.9049 2.59882 -19.2681 8.9245 -1.68157 15.2693 7.08509 -6.47011 49.7482 -7.801 -4.53515 111.696 20.0565 -14.8171 6.29925e-006 -5.63731e-007 -5.99739e-007 15.7361 38.1159 -3.483 -7.99901e-006 3.07644e-006 -3.00587 8.02885 -4.95089 0.697378 -77.1434 -8.22645 5.51202 -98.9981 28.1756 3.01012 2.08215e-005 -1.99838e-006 4.20317e-006 -21.7702 43.8682 9.02721 7.77069e-006 1.26415e-005 3.00605 -8.02892 -4.95111 -0.697475 179.772 13.2103 -2.09345 -180 7.01484e-015 178.676 176.213 24.9927 -179.674 3.26638e-006 7.70834e-007 0.719064 -24.1876 71.3376 23.0363 8.13649 25.2327 -3.48774 -176.346 11.2071 -1.67518 -1.07169e-005 -4.64205e-006 -0.8746 -2.14606 -25.702 0.353582 5.81824e-008 -4.00362e-006 -0.445932 22.2159 73.7808 -25.6 -8.13649 25.2327 3.48774 
